<svg xmlns="http://www.w3.org/2000/svg" width="1200" height="630" viewBox="0 0 1200 630" role="img" aria-labelledby="title desc">
  <title id="title">libsonare audio analysis and mastering</title>
  <desc id="desc">Open source browser audio analysis and mastering DSP powered by WebAssembly.</desc>
  <defs>
    <linearGradient id="bg" x1="0" y1="0" x2="1" y2="1">
      <stop offset="0" stop-color="#101827"/>
      <stop offset="0.58" stop-color="#172033"/>
      <stop offset="1" stop-color="#0f766e"/>
    </linearGradient>
    <linearGradient id="wave" x1="0" y1="0" x2="1" y2="0">
      <stop offset="0" stop-color="#38bdf8"/>
      <stop offset="0.52" stop-color="#a78bfa"/>
      <stop offset="1" stop-color="#2dd4bf"/>
    </linearGradient>
  </defs>
  <rect width="1200" height="630" fill="url(#bg)"/>
  <path d="M0 469C96 430 183 428 274 461C364 494 439 541 542 505C651 467 705 366 817 367C935 368 1012 484 1200 407V630H0Z" fill="#020617" opacity=".42"/>
  <g transform="translate(104 92)">
    <text x="0" y="0" fill="#dbeafe" font-family="Arial, Helvetica, sans-serif" font-size="32" font-weight="700" letter-spacing="0">libsonare</text>
    <text x="0" y="104" fill="#ffffff" font-family="Arial, Helvetica, sans-serif" font-size="76" font-weight="800" letter-spacing="0">Audio analysis</text>
    <text x="0" y="192" fill="#ffffff" font-family="Arial, Helvetica, sans-serif" font-size="76" font-weight="800" letter-spacing="0">and mastering</text>
    <text x="0" y="258" fill="#bfdbfe" font-family="Arial, Helvetica, sans-serif" font-size="30" font-weight="500" letter-spacing="0">Apache-2.0 DSP running locally in your browser</text>
  </g>
  <g transform="translate(108 430)" fill="none" stroke="url(#wave)" stroke-width="10" stroke-linecap="round">
    <path d="M0 64C40 64 45 17 78 17C112 17 111 111 149 111C189 111 185 32 224 32C264 32 258 90 298 90C338 90 335 50 375 50C416 50 413 75 454 75C494 75 495 40 534 40C575 40 571 99 612 99C654 99 648 20 691 20C734 20 725 116 770 116C817 116 806 51 852 51C898 51 888 81 936 81"/>
  </g>
  <g transform="translate(808 105)">
    <rect x="0" y="0" width="284" height="204" rx="18" fill="#0f172a" opacity=".68" stroke="#5eead4" stroke-opacity=".5"/>
    <rect x="34" y="42" width="52" height="112" rx="7" fill="#38bdf8"/>
    <rect x="116" y="72" width="52" height="82" rx="7" fill="#a78bfa"/>
    <rect x="198" y="22" width="52" height="132" rx="7" fill="#2dd4bf"/>
    <text x="34" y="178" fill="#cbd5e1" font-family="Arial, Helvetica, sans-serif" font-size="18" font-weight="700" letter-spacing="0">LUFS / TP / DSP</text>
  </g>
</svg>
